<?xml version="1.0" standalone="no"?><svg xmlns="http://www.w3.org/2000/svg" viewBox="0 0 1440 320"><path fill="#0099ff" fill-opacity="1" d="M0,96L40,117.3C80,139,160,181,240,208C320,235,400,245,480,224C560,203,640,149,720,133.3C800,117,880,139,960,176C1040,213,1120,267,1200,250.7C1280,235,1360,149,1400,106.7L1440,64L1440,320L1400,320C1360,320,1280,320,1200,320C1120,320,1040,320,960,320C880,320,800,320,720,320C640,320,560,320,480,320C400,320,320,320,240,320C160,320,80,320,40,320L0,320Z"></path></svg>